<?xml version="1.0" encoding="utf-8"?>
<!-- Generator: Adobe Illustrator 16.0.3, SVG Export Plug-In . SVG Version: 6.00 Build 0)  -->
<!DOCTYPE svg PUBLIC "-//W3C//DTD SVG 1.1//EN" "http://www.w3.org/Graphics/SVG/1.1/DTD/svg11.dtd">
<svg version="1.1" id="Layer_1" xmlns="http://www.w3.org/2000/svg" xmlns:xlink="http://www.w3.org/1999/xlink" x="0px" y="0px"
	 width="500px" height="500px" viewBox="0 0 500 500" enable-background="new 0 0 500 500" xml:space="preserve">
<g>
	<g>
		<g>
		</g>
		<g>
		</g>
		<g>
			<g>
				<path fill="#00CC00" stroke="#000000" stroke-width="0.5" stroke-miterlimit="10" d="M250,250l-52.814,211.828
					C80.196,432.659,9.003,314.175,38.172,197.186C62.674,98.915,148.721,31.688,250,31.688V250z"/>
			</g>
		</g>
		<g>
			<g>
				<path fill="#FFFFFF" stroke="#000000" stroke-width="0.5" stroke-miterlimit="10" d="M250,250l128.321,176.618
					c-54.625,39.688-115.622,51.544-181.136,35.21L250,250z"/>
			</g>
		</g>
		<g>
			<g>
				<path fill="#FFFFFF" stroke="#000000" stroke-width="0.5" stroke-miterlimit="10" d="M250,250l151.652,157.041
					c-6.938,6.7-15.528,13.908-23.331,19.577L250,250z"/>
			</g>
		</g>
		<g>
			<g>
				<path fill="#800080" stroke="#000000" stroke-width="0.5" stroke-miterlimit="10" d="M250,250l216.686,26.605
					c-6.466,52.656-26.871,93.583-65.033,130.436L250,250z"/>
			</g>
		</g>
		<g>
			<g>
				<path fill="#00CC00" stroke="#000000" stroke-width="0.5" stroke-miterlimit="10" d="M250,250L398.889,90.336
					c52.908,49.337,76.613,114.466,67.797,186.269L250,250z"/>
			</g>
		</g>
		<g>
			<g>
				<path fill="#FFFFFF" stroke="#000000" stroke-width="0.5" stroke-miterlimit="10" d="M250,250l92.263-197.858
					c21.854,10.191,38.99,21.749,56.626,38.195L250,250z"/>
			</g>
		</g>
		<g>
			<g>
				<path fill="#800080" stroke="#000000" stroke-width="0.5" stroke-miterlimit="10" d="M250,250V31.688
					c33.76,0,61.666,6.187,92.263,20.454L250,250z"/>
			</g>
		</g>
	</g>
	<g>
		<g>
		</g>
		<g>
		</g>
		<g>
		</g>
		<g>
		</g>
		<g>
		</g>
		<g>
		</g>
		<g>
		</g>
		<g>
		</g>
		<g>
		</g>
	</g>
</g>
<rect x="31.388" y="232.466" fill="none" width="218.148" height="35.122"/>
<text transform="matrix(1 0 0 1 56.3872 256.1465)" fill="#FFFFFF" font-family="'NotoSans-Bold'" font-size="18">Ordinary Time</text>
<rect x="159.866" y="339.856" transform="matrix(0.1736 0.9848 -0.9848 0.1736 574.2262 30.4974)" fill="none" width="218.148" height="35.121"/>
<text transform="matrix(0.1736 0.9848 -0.9848 0.1736 267.6992 385.6143)" font-family="'NotoSans-Bold'" font-size="18">Easter</text>
<rect x="210.025" y="315.523" transform="matrix(0.6428 0.766 -0.766 0.6428 369.1436 -125.462)" fill="none" width="218.148" height="35.122"/>
<text transform="matrix(0.6428 0.766 -0.766 0.6428 319.084 342.585)" font-family="'NotoSans-Bold'" font-size="18">Triduum</text>
<rect x="238.111" y="281.958" transform="matrix(0.891 0.454 -0.454 0.891 173.819 -124.9731)" fill="none" width="218.148" height="35.12"/>
<text transform="matrix(0.891 0.454 -0.454 0.891 383.2803 324.7783)" fill="#FFFFFF" font-family="'NotoSans-Bold'" font-size="18">Lent</text>
<rect x="244.661" y="198.733" transform="matrix(0.9511 -0.309 0.309 0.9511 -49.5257 119.897)" fill="none" width="218.148" height="35.121"/>
<text transform="matrix(0.9511 -0.309 0.309 0.9511 317.2744 234.5762)" fill="#FFFFFF" font-family="'NotoSans-Bold'" font-size="18">Ordinary Time</text>
<rect x="204.202" y="140.699" transform="matrix(0.5592 -0.829 0.829 0.5592 6.8911 329.4789)" fill="none" width="218.148" height="35.12"/>
<text transform="matrix(0.5592 -0.829 0.829 0.5592 314.3604 167.5928)" font-family="'NotoSans-Bold'" font-size="18">Christmas</text>
<rect x="164.896" y="124.702" transform="matrix(0.2079 -0.9781 0.9781 0.2079 77.8547 380.6674)" fill="none" width="218.147" height="35.12"/>
<text transform="matrix(0.2079 -0.9781 0.9781 0.2079 284.0596 124.2227)" fill="#FFFFFF" font-family="'NotoSans-Bold'" font-size="18">Advent</text>
<g>
	<g>
		<path fill="none" stroke="#000000" stroke-width="2" stroke-miterlimit="10" d="M258.748,22.934
			c-2.446-0.118-5.471-0.188-8.748-0.188"/>
		<g>
			<path d="M264.735,23.708c-2.703-1.366-6.002-3.549-7.958-5.687l1.174,4.919l-2.244,4.531
				C258.092,25.824,261.795,24.434,264.735,23.708z"/>
		</g>
	</g>
</g>
</svg>
